<?xml version="1.0" standalone="no"?>
<!DOCTYPE svg PUBLIC "-//W3C//DTD SVG 20010904//EN"
 "http://www.w3.org/TR/2001/REC-SVG-20010904/DTD/svg10.dtd">
<svg version="1.0" xmlns="http://www.w3.org/2000/svg"
 width="450.000000pt" height="450.000000pt" viewBox="0 0 450.000000 450.000000"
 preserveAspectRatio="xMidYMid meet">
<metadata>
Created by potrace 1.11, written by Peter Selinger 2001-2013
</metadata>
<g transform="translate(0.000000,450.000000) scale(0.100000,-0.100000)"
fill="#000000" stroke="none">
<path d="M0 2250 l0 -2250 2250 0 2250 0 0 2250 0 2250 -2250 0 -2250 0 0
-2250z m2559 1177 c239 -53 381 -215 381 -437 0 -188 -105 -327 -292 -384
l-73 -23 75 -17 c204 -45 319 -154 352 -336 9 -47 9 -78 0 -132 -34 -196 -170
-338 -382 -398 -100 -28 -383 -41 -810 -38 l-325 3 -3 893 -2 894 502 -5 c413
-4 516 -7 577 -20z"/>
<path d="M1910 2936 l0 -187 233 3 c226 3 233 4 276 28 59 34 81 77 81 160 0
84 -23 123 -88 153 -42 19 -69 21 -274 25 l-228 4 0 -186z"/>
<path d="M1910 2205 l0 -217 233 5 c239 5 280 11 338 50 53 36 74 81 74 162 0
95 -30 150 -100 185 -49 24 -57 25 -297 28 l-248 3 0 -216z"/>
</g>
</svg>
